<?xml version="1.0" encoding="UTF-8" standalone="no"?>
<svg
   xmlns:dc="http://purl.org/dc/elements/1.1/"
   xmlns:cc="http://creativecommons.org/ns#"
   xmlns:rdf="http://www.w3.org/1999/02/22-rdf-syntax-ns#"
   xmlns="http://www.w3.org/2000/svg"
   xmlns:xlink="http://www.w3.org/1999/xlink"
   xmlns:sodipodi="http://sodipodi.sourceforge.net/DTD/sodipodi-0.dtd"
   xmlns:inkscape="http://www.inkscape.org/namespaces/inkscape"
   version="1.0"
   width="776" height="776" viewBox="12 12 776 776"
   id="wang_tile"
   sodipodi:docname="wang_tile.svg">
  <metadata>
    <rdf:RDF>
      <cc:Work rdf:about="">
        <dc:format>image/svg+xml</dc:format>
        <dc:type rdf:resource="http://purl.org/dc/dcmitype/StillImage"/>
      </cc:Work>
    </rdf:RDF>
  </metadata>
  <defs>
    <linearGradient
       id="linearGradient11867">
      <stop
         style="stop-color:#ffffff;stop-opacity:0;"
         offset="0"
         id="stop11869" />
      <stop
         id="stop11877"
         offset="0.7"
         style="stop-color:#ffffff;stop-opacity:0;" />
      <stop
         id="stop11875"
         offset="0.9"
         style="stop-color:#ffffff;stop-opacity:1;" />
      <stop
         style="stop-color:#ffffff;stop-opacity:1;"
         offset="1"
         id="stop11871" />
    </linearGradient>
    <radialGradient
       inkscape:collect="always"
       xlink:href="#linearGradient11867"
       id="radialGradient11873"
       cx="400"
       cy="400"
       fx="400"
       fy="400"
       r="388"
       gradientUnits="userSpaceOnUse" />
  </defs>
  <path style="stroke:#000000;stroke-width:1;fill:#FF0000"
       d="M  94.1 470.6 L 47.1 470.6 L 70.6 447.1Z
M 94.1 376.5 L 94.1 423.5 L 70.6 400.0Z
M 47.1 376.5 L 94.1 376.5 L 70.6 400.0Z
M 94.1 376.5 L 47.1 376.5 L 70.6 352.9Z
M 94.1 564.7 L 94.1 517.6 L117.6 541.2Z
M 94.1 423.5 L 94.1 376.5 L117.6 400.0Z
M188.2 611.8 L188.2 658.8 L164.7 635.3Z
M141.2 611.8 L188.2 611.8 L164.7 635.3Z
M188.2 611.8 L141.2 611.8 L164.7 588.2Z
M188.2 517.6 L188.2 564.7 L164.7 541.2Z
M141.2 517.6 L188.2 517.6 L164.7 541.2Z
M188.2 517.6 L141.2 517.6 L164.7 494.1Z
M188.2 376.5 L188.2 423.5 L164.7 400.0Z
M141.2 376.5 L188.2 376.5 L164.7 400.0Z
M188.2 376.5 L141.2 376.5 L164.7 352.9Z
M141.2 282.4 L188.2 282.4 L164.7 305.9Z
M188.2 282.4 L141.2 282.4 L164.7 258.8Z
M141.2 188.2 L141.2 141.2 L164.7 164.7Z
M188.2 658.8 L188.2 611.8 L211.8 635.3Z
M188.2 564.7 L188.2 517.6 L211.8 541.2Z
M188.2 423.5 L188.2 376.5 L211.8 400.0Z
M235.3 282.4 L235.3 329.4 L211.8 305.9Z
M188.2 282.4 L235.3 282.4 L211.8 305.9Z
M235.3 282.4 L188.2 282.4 L211.8 258.8Z
M188.2 141.2 L235.3 141.2 L211.8 164.7Z
M235.3 141.2 L188.2 141.2 L211.8 117.6Z
M282.4 611.8 L282.4 658.8 L258.8 635.3Z
M235.3 611.8 L282.4 611.8 L258.8 635.3Z
M282.4 611.8 L235.3 611.8 L258.8 588.2Z
M235.3 517.6 L282.4 517.6 L258.8 541.2Z
M282.4 517.6 L235.3 517.6 L258.8 494.1Z
M282.4 376.5 L282.4 423.5 L258.8 400.0Z
M235.3 376.5 L282.4 376.5 L258.8 400.0Z
M282.4 376.5 L235.3 376.5 L258.8 352.9Z
M235.3 329.4 L235.3 282.4 L258.8 305.9Z
M282.4 658.8 L282.4 611.8 L305.9 635.3Z
M329.4 517.6 L329.4 564.7 L305.9 541.2Z
M282.4 517.6 L329.4 517.6 L305.9 541.2Z
M329.4 517.6 L282.4 517.6 L305.9 494.1Z
M282.4 423.5 L282.4 376.5 L305.9 400.0Z
M282.4 282.4 L329.4 282.4 L305.9 305.9Z
M329.4 282.4 L282.4 282.4 L305.9 258.8Z
M282.4 141.2 L329.4 141.2 L305.9 164.7Z
M329.4 141.2 L282.4 141.2 L305.9 117.6Z
M329.4 564.7 L329.4 517.6 L352.9 541.2Z
M376.5 376.5 L376.5 423.5 L352.9 400.0Z
M329.4 376.5 L376.5 376.5 L352.9 400.0Z
M376.5 376.5 L329.4 376.5 L352.9 352.9Z
M376.5 282.4 L376.5 329.4 L352.9 305.9Z
M329.4 282.4 L376.5 282.4 L352.9 305.9Z
M376.5 282.4 L329.4 282.4 L352.9 258.8Z
M376.5 141.2 L376.5 188.2 L352.9 164.7Z
M329.4 141.2 L376.5 141.2 L352.9 164.7Z
M376.5 141.2 L329.4 141.2 L352.9 117.6Z
M376.5  47.1 L376.5  94.1 L352.9  70.6Z
M329.4  47.1 L376.5  47.1 L352.9  70.6Z
M423.5 752.9 L376.5 752.9 L400.0 729.4Z
M423.5 611.8 L423.5 658.8 L400.0 635.3Z
M376.5 611.8 L423.5 611.8 L400.0 635.3Z
M423.5 611.8 L376.5 611.8 L400.0 588.2Z
M423.5 517.6 L423.5 564.7 L400.0 541.2Z
M376.5 517.6 L423.5 517.6 L400.0 541.2Z
M423.5 517.6 L376.5 517.6 L400.0 494.1Z
M376.5 423.5 L376.5 376.5 L400.0 400.0Z
M376.5 329.4 L376.5 282.4 L400.0 305.9Z
M376.5 188.2 L376.5 141.2 L400.0 164.7Z
M376.5  94.1 L376.5  47.1 L400.0  70.6Z
M423.5 658.8 L423.5 611.8 L447.1 635.3Z
M423.5 564.7 L423.5 517.6 L447.1 541.2Z
M470.6 282.4 L470.6 329.4 L447.1 305.9Z
M423.5 282.4 L470.6 282.4 L447.1 305.9Z
M470.6 282.4 L423.5 282.4 L447.1 258.8Z
M470.6  47.1 L470.6  94.1 L447.1  70.6Z
M423.5  47.1 L470.6  47.1 L447.1  70.6Z
M517.6 517.6 L517.6 564.7 L494.1 541.2Z
M470.6 517.6 L517.6 517.6 L494.1 541.2Z
M517.6 517.6 L470.6 517.6 L494.1 494.1Z
M517.6 376.5 L517.6 423.5 L494.1 400.0Z
M470.6 376.5 L517.6 376.5 L494.1 400.0Z
M517.6 376.5 L470.6 376.5 L494.1 352.9Z
M470.6 329.4 L470.6 282.4 L494.1 305.9Z
M517.6 141.2 L517.6 188.2 L494.1 164.7Z
M470.6 141.2 L517.6 141.2 L494.1 164.7Z
M517.6 141.2 L470.6 141.2 L494.1 117.6Z
M470.6  94.1 L470.6  47.1 L494.1  70.6Z
M564.7 611.8 L564.7 658.8 L541.2 635.3Z
M517.6 611.8 L564.7 611.8 L541.2 635.3Z
M564.7 611.8 L517.6 611.8 L541.2 588.2Z
M517.6 564.7 L517.6 517.6 L541.2 541.2Z
M517.6 423.5 L517.6 376.5 L541.2 400.0Z
M564.7 282.4 L564.7 329.4 L541.2 305.9Z
M517.6 282.4 L564.7 282.4 L541.2 305.9Z
M564.7 282.4 L517.6 282.4 L541.2 258.8Z
M517.6 188.2 L517.6 141.2 L541.2 164.7Z
M564.7 658.8 L564.7 611.8 L588.2 635.3Z
M611.8 517.6 L611.8 564.7 L588.2 541.2Z
M564.7 517.6 L611.8 517.6 L588.2 541.2Z
M611.8 517.6 L564.7 517.6 L588.2 494.1Z
M564.7 329.4 L564.7 282.4 L588.2 305.9Z
M611.8 564.7 L611.8 517.6 L635.3 541.2Z
M658.8 376.5 L658.8 423.5 L635.3 400.0Z
M611.8 376.5 L658.8 376.5 L635.3 400.0Z
M658.8 376.5 L611.8 376.5 L635.3 352.9Z
M611.8 282.4 L658.8 282.4 L635.3 305.9Z
M658.8 282.4 L611.8 282.4 L635.3 258.8Z
M611.8 141.2 L658.8 141.2 L635.3 164.7Z
M705.9 517.6 L705.9 564.7 L682.4 541.2Z
M658.8 517.6 L705.9 517.6 L682.4 541.2Z
M705.9 517.6 L658.8 517.6 L682.4 494.1Z
M658.8 423.5 L658.8 376.5 L682.4 400.0Z
M705.9 282.4 L705.9 329.4 L682.4 305.9Z
M658.8 282.4 L705.9 282.4 L682.4 305.9Z
M705.9 282.4 L658.8 282.4 L682.4 258.8Z"
       id="path9941" />
  <path style="stroke:#000000;stroke-width:1;fill:#00FF00"
       d="M  47.1 423.5 L 94.1 423.5 L 70.6 447.1Z
M 94.1 423.5 L 47.1 423.5 L 70.6 400.0Z
M 47.1 423.5 L 47.1 376.5 L 70.6 400.0Z
M141.2 611.8 L 94.1 611.8 L117.6 588.2Z
M141.2 517.6 L141.2 564.7 L117.6 541.2Z
M 94.1 517.6 L141.2 517.6 L117.6 541.2Z
M141.2 517.6 L 94.1 517.6 L117.6 494.1Z
M 94.1 470.6 L141.2 470.6 L117.6 494.1Z
M141.2 470.6 L 94.1 470.6 L117.6 447.1Z
M141.2 376.5 L141.2 423.5 L117.6 400.0Z
M 94.1 376.5 L141.2 376.5 L117.6 400.0Z
M141.2 376.5 L 94.1 376.5 L117.6 352.9Z
M 94.1 329.4 L 94.1 282.4 L117.6 305.9Z
M 94.1 282.4 L141.2 282.4 L117.6 305.9Z
M141.2 282.4 L 94.1 282.4 L117.6 258.8Z
M 94.1 235.3 L141.2 235.3 L117.6 258.8Z
M141.2 235.3 L 94.1 235.3 L117.6 211.8Z
M188.2 658.8 L141.2 658.8 L164.7 635.3Z
M141.2 658.8 L141.2 611.8 L164.7 635.3Z
M141.2 564.7 L188.2 564.7 L164.7 588.2Z
M188.2 564.7 L141.2 564.7 L164.7 541.2Z
M141.2 564.7 L141.2 517.6 L164.7 541.2Z
M141.2 470.6 L188.2 470.6 L164.7 494.1Z
M188.2 470.6 L141.2 470.6 L164.7 447.1Z
M141.2 423.5 L188.2 423.5 L164.7 447.1Z
M188.2 423.5 L141.2 423.5 L164.7 400.0Z
M141.2 423.5 L141.2 376.5 L164.7 400.0Z
M141.2 329.4 L188.2 329.4 L164.7 352.9Z
M188.2 282.4 L188.2 329.4 L164.7 305.9Z
M188.2 329.4 L141.2 329.4 L164.7 305.9Z
M141.2 188.2 L188.2 188.2 L164.7 211.8Z
M188.2 188.2 L141.2 188.2 L164.7 164.7Z
M141.2 141.2 L188.2 141.2 L164.7 164.7Z
M235.3 705.9 L188.2 705.9 L211.8 682.4Z
M235.3 611.8 L235.3 658.8 L211.8 635.3Z
M188.2 611.8 L235.3 611.8 L211.8 635.3Z
M235.3 611.8 L188.2 611.8 L211.8 588.2Z
M188.2 564.7 L235.3 564.7 L211.8 588.2Z
M235.3 564.7 L188.2 564.7 L211.8 541.2Z
M188.2 517.6 L235.3 517.6 L211.8 541.2Z
M235.3 517.6 L188.2 517.6 L211.8 494.1Z
M188.2 470.6 L235.3 470.6 L211.8 494.1Z
M235.3 470.6 L188.2 470.6 L211.8 447.1Z
M235.3 376.5 L235.3 423.5 L211.8 400.0Z
M188.2 376.5 L235.3 376.5 L211.8 400.0Z
M235.3 376.5 L188.2 376.5 L211.8 352.9Z
M188.2 329.4 L235.3 329.4 L211.8 352.9Z
M235.3 329.4 L188.2 329.4 L211.8 305.9Z
M188.2 329.4 L188.2 282.4 L211.8 305.9Z
M188.2 235.3 L235.3 235.3 L211.8 258.8Z
M235.3 235.3 L188.2 235.3 L211.8 211.8Z
M188.2 188.2 L235.3 188.2 L211.8 211.8Z
M235.3 141.2 L235.3 188.2 L211.8 164.7Z
M235.3 188.2 L188.2 188.2 L211.8 164.7Z
M282.4 705.9 L235.3 705.9 L258.8 682.4Z
M235.3 658.8 L282.4 658.8 L258.8 682.4Z
M282.4 658.8 L235.3 658.8 L258.8 635.3Z
M235.3 658.8 L235.3 611.8 L258.8 635.3Z
M235.3 564.7 L282.4 564.7 L258.8 588.2Z
M282.4 517.6 L282.4 564.7 L258.8 541.2Z
M282.4 564.7 L235.3 564.7 L258.8 541.2Z
M235.3 423.5 L282.4 423.5 L258.8 447.1Z
M282.4 423.5 L235.3 423.5 L258.8 400.0Z
M235.3 423.5 L235.3 376.5 L258.8 400.0Z
M235.3 329.4 L282.4 329.4 L258.8 352.9Z
M282.4 329.4 L235.3 329.4 L258.8 305.9Z
M235.3 282.4 L282.4 282.4 L258.8 305.9Z
M282.4 282.4 L235.3 282.4 L258.8 258.8Z
M235.3 235.3 L282.4 235.3 L258.8 258.8Z
M282.4 235.3 L235.3 235.3 L258.8 211.8Z
M235.3 188.2 L235.3 141.2 L258.8 164.7Z
M235.3 141.2 L282.4 141.2 L258.8 164.7Z
M282.4 141.2 L235.3 141.2 L258.8 117.6Z
M329.4 705.9 L282.4 705.9 L305.9 682.4Z
M329.4 611.8 L329.4 658.8 L305.9 635.3Z
M282.4 611.8 L329.4 611.8 L305.9 635.3Z
M329.4 611.8 L282.4 611.8 L305.9 588.2Z
M282.4 564.7 L329.4 564.7 L305.9 588.2Z
M329.4 564.7 L282.4 564.7 L305.9 541.2Z
M282.4 564.7 L282.4 517.6 L305.9 541.2Z
M282.4 470.6 L329.4 470.6 L305.9 494.1Z
M329.4 470.6 L282.4 470.6 L305.9 447.1Z
M329.4 376.5 L329.4 423.5 L305.9 400.0Z
M282.4 376.5 L329.4 376.5 L305.9 400.0Z
M329.4 376.5 L282.4 376.5 L305.9 352.9Z
M282.4 329.4 L329.4 329.4 L305.9 352.9Z
M329.4 282.4 L329.4 329.4 L305.9 305.9Z
M329.4 329.4 L282.4 329.4 L305.9 305.9Z
M282.4 188.2 L329.4 188.2 L305.9 211.8Z
M329.4 141.2 L329.4 188.2 L305.9 164.7Z
M329.4 188.2 L282.4 188.2 L305.9 164.7Z
M376.5 752.9 L329.4 752.9 L352.9 729.4Z
M329.4 705.9 L376.5 705.9 L352.9 729.4Z
M376.5 705.9 L329.4 705.9 L352.9 682.4Z
M329.4 658.8 L329.4 611.8 L352.9 635.3Z
M329.4 611.8 L376.5 611.8 L352.9 635.3Z
M376.5 611.8 L329.4 611.8 L352.9 588.2Z
M376.5 517.6 L376.5 564.7 L352.9 541.2Z
M329.4 517.6 L376.5 517.6 L352.9 541.2Z
M376.5 517.6 L329.4 517.6 L352.9 494.1Z
M329.4 470.6 L376.5 470.6 L352.9 494.1Z
M376.5 470.6 L329.4 470.6 L352.9 447.1Z
M329.4 423.5 L376.5 423.5 L352.9 447.1Z
M376.5 423.5 L329.4 423.5 L352.9 400.0Z
M329.4 423.5 L329.4 376.5 L352.9 400.0Z
M329.4 329.4 L376.5 329.4 L352.9 352.9Z
M376.5 329.4 L329.4 329.4 L352.9 305.9Z
M329.4 329.4 L329.4 282.4 L352.9 305.9Z
M329.4 235.3 L376.5 235.3 L352.9 258.8Z
M376.5 235.3 L329.4 235.3 L352.9 211.8Z
M329.4 188.2 L376.5 188.2 L352.9 211.8Z
M376.5 188.2 L329.4 188.2 L352.9 164.7Z
M329.4 188.2 L329.4 141.2 L352.9 164.7Z
M329.4  94.1 L376.5  94.1 L352.9 117.6Z
M376.5  94.1 L329.4  94.1 L352.9  70.6Z
M329.4  94.1 L329.4  47.1 L352.9  70.6Z
M376.5 705.9 L423.5 705.9 L400.0 729.4Z
M423.5 705.9 L376.5 705.9 L400.0 682.4Z
M376.5 564.7 L423.5 564.7 L400.0 588.2Z
M423.5 564.7 L376.5 564.7 L400.0 541.2Z
M376.5 564.7 L376.5 517.6 L400.0 541.2Z
M376.5 470.6 L423.5 470.6 L400.0 494.1Z
M423.5 470.6 L376.5 470.6 L400.0 447.1Z
M423.5 376.5 L423.5 423.5 L400.0 400.0Z
M376.5 376.5 L423.5 376.5 L400.0 400.0Z
M423.5 376.5 L376.5 376.5 L400.0 352.9Z
M423.5 282.4 L423.5 329.4 L400.0 305.9Z
M376.5 282.4 L423.5 282.4 L400.0 305.9Z
M423.5 282.4 L376.5 282.4 L400.0 258.8Z
M376.5 235.3 L423.5 235.3 L400.0 258.8Z
M423.5 235.3 L376.5 235.3 L400.0 211.8Z
M423.5 141.2 L423.5 188.2 L400.0 164.7Z
M376.5 141.2 L423.5 141.2 L400.0 164.7Z
M423.5 141.2 L376.5 141.2 L400.0 117.6Z
M423.5  47.1 L423.5  94.1 L400.0  70.6Z
M376.5  47.1 L423.5  47.1 L400.0  70.6Z
M470.6 752.9 L423.5 752.9 L447.1 729.4Z
M423.5 705.9 L470.6 705.9 L447.1 729.4Z
M470.6 705.9 L423.5 705.9 L447.1 682.4Z
M470.6 611.8 L470.6 658.8 L447.1 635.3Z
M423.5 611.8 L470.6 611.8 L447.1 635.3Z
M470.6 611.8 L423.5 611.8 L447.1 588.2Z
M470.6 517.6 L470.6 564.7 L447.1 541.2Z
M423.5 517.6 L470.6 517.6 L447.1 541.2Z
M470.6 517.6 L423.5 517.6 L447.1 494.1Z
M423.5 470.6 L470.6 470.6 L447.1 494.1Z
M470.6 470.6 L423.5 470.6 L447.1 447.1Z
M423.5 423.5 L423.5 376.5 L447.1 400.0Z
M423.5 376.5 L470.6 376.5 L447.1 400.0Z
M470.6 376.5 L423.5 376.5 L447.1 352.9Z
M423.5 329.4 L470.6 329.4 L447.1 352.9Z
M470.6 329.4 L423.5 329.4 L447.1 305.9Z
M423.5 329.4 L423.5 282.4 L447.1 305.9Z
M423.5 235.3 L470.6 235.3 L447.1 258.8Z
M470.6 235.3 L423.5 235.3 L447.1 211.8Z
M423.5 188.2 L423.5 141.2 L447.1 164.7Z
M423.5 141.2 L470.6 141.2 L447.1 164.7Z
M470.6 141.2 L423.5 141.2 L447.1 117.6Z
M423.5  94.1 L470.6  94.1 L447.1 117.6Z
M470.6  94.1 L423.5  94.1 L447.1  70.6Z
M423.5  94.1 L423.5  47.1 L447.1  70.6Z
M517.6 705.9 L470.6 705.9 L494.1 682.4Z
M470.6 658.8 L470.6 611.8 L494.1 635.3Z
M470.6 611.8 L517.6 611.8 L494.1 635.3Z
M517.6 611.8 L470.6 611.8 L494.1 588.2Z
M470.6 564.7 L517.6 564.7 L494.1 588.2Z
M517.6 564.7 L470.6 564.7 L494.1 541.2Z
M470.6 564.7 L470.6 517.6 L494.1 541.2Z
M470.6 470.6 L517.6 470.6 L494.1 494.1Z
M517.6 470.6 L470.6 470.6 L494.1 447.1Z
M470.6 329.4 L517.6 329.4 L494.1 352.9Z
M517.6 329.4 L470.6 329.4 L494.1 305.9Z
M470.6 282.4 L517.6 282.4 L494.1 305.9Z
M517.6 282.4 L470.6 282.4 L494.1 258.8Z
M470.6 235.3 L517.6 235.3 L494.1 258.8Z
M517.6 235.3 L470.6 235.3 L494.1 211.8Z
M470.6  94.1 L517.6  94.1 L494.1 117.6Z
M517.6  94.1 L470.6  94.1 L494.1  70.6Z
M470.6  47.1 L517.6  47.1 L494.1  70.6Z
M564.7 705.9 L517.6 705.9 L541.2 682.4Z
M517.6 564.7 L564.7 564.7 L541.2 588.2Z
M564.7 564.7 L517.6 564.7 L541.2 541.2Z
M517.6 517.6 L564.7 517.6 L541.2 541.2Z
M564.7 517.6 L517.6 517.6 L541.2 494.1Z
M517.6 470.6 L564.7 470.6 L541.2 494.1Z
M564.7 470.6 L517.6 470.6 L541.2 447.1Z
M564.7 376.5 L564.7 423.5 L541.2 400.0Z
M517.6 376.5 L564.7 376.5 L541.2 400.0Z
M564.7 376.5 L517.6 376.5 L541.2 352.9Z
M517.6 235.3 L564.7 235.3 L541.2 258.8Z
M564.7 235.3 L517.6 235.3 L541.2 211.8Z
M564.7 141.2 L564.7 188.2 L541.2 164.7Z
M517.6 141.2 L564.7 141.2 L541.2 164.7Z
M564.7 141.2 L517.6 141.2 L541.2 117.6Z
M611.8 705.9 L564.7 705.9 L588.2 682.4Z
M611.8 611.8 L611.8 658.8 L588.2 635.3Z
M564.7 611.8 L611.8 611.8 L588.2 635.3Z
M611.8 611.8 L564.7 611.8 L588.2 588.2Z
M564.7 470.6 L611.8 470.6 L588.2 494.1Z
M611.8 470.6 L564.7 470.6 L588.2 447.1Z
M564.7 423.5 L564.7 376.5 L588.2 400.0Z
M564.7 376.5 L611.8 376.5 L588.2 400.0Z
M611.8 376.5 L564.7 376.5 L588.2 352.9Z
M564.7 329.4 L611.8 329.4 L588.2 352.9Z
M611.8 329.4 L564.7 329.4 L588.2 305.9Z
M564.7 282.4 L611.8 282.4 L588.2 305.9Z
M611.8 282.4 L564.7 282.4 L588.2 258.8Z
M564.7 235.3 L611.8 235.3 L588.2 258.8Z
M611.8 235.3 L564.7 235.3 L588.2 211.8Z
M564.7 188.2 L564.7 141.2 L588.2 164.7Z
M564.7 141.2 L611.8 141.2 L588.2 164.7Z
M611.8 141.2 L564.7 141.2 L588.2 117.6Z
M611.8 658.8 L611.8 611.8 L635.3 635.3Z
M611.8 611.8 L658.8 611.8 L635.3 635.3Z
M658.8 611.8 L611.8 611.8 L635.3 588.2Z
M658.8 517.6 L658.8 564.7 L635.3 541.2Z
M611.8 517.6 L658.8 517.6 L635.3 541.2Z
M658.8 517.6 L611.8 517.6 L635.3 494.1Z
M611.8 470.6 L658.8 470.6 L635.3 494.1Z
M658.8 470.6 L611.8 470.6 L635.3 447.1Z
M611.8 329.4 L658.8 329.4 L635.3 352.9Z
M658.8 282.4 L658.8 329.4 L635.3 305.9Z
M658.8 329.4 L611.8 329.4 L635.3 305.9Z
M611.8 188.2 L658.8 188.2 L635.3 211.8Z
M658.8 141.2 L658.8 188.2 L635.3 164.7Z
M658.8 188.2 L611.8 188.2 L635.3 164.7Z
M705.9 611.8 L658.8 611.8 L682.4 588.2Z
M658.8 564.7 L705.9 564.7 L682.4 588.2Z
M705.9 564.7 L658.8 564.7 L682.4 541.2Z
M658.8 564.7 L658.8 517.6 L682.4 541.2Z
M658.8 470.6 L705.9 470.6 L682.4 494.1Z
M705.9 470.6 L658.8 470.6 L682.4 447.1Z
M705.9 376.5 L705.9 423.5 L682.4 400.0Z
M658.8 376.5 L705.9 376.5 L682.4 400.0Z
M705.9 376.5 L658.8 376.5 L682.4 352.9Z
M658.8 329.4 L705.9 329.4 L682.4 352.9Z
M705.9 329.4 L658.8 329.4 L682.4 305.9Z
M658.8 329.4 L658.8 282.4 L682.4 305.9Z
M658.8 235.3 L705.9 235.3 L682.4 258.8Z
M705.9 235.3 L658.8 235.3 L682.4 211.8Z
M752.9 470.6 L705.9 470.6 L729.4 447.1Z
M705.9 423.5 L705.9 376.5 L729.4 400.0Z
M705.9 376.5 L752.9 376.5 L729.4 400.0Z
M752.9 376.5 L705.9 376.5 L729.4 352.9Z"
       id="path10431" />
  <path style="stroke:#000000;stroke-width:1;fill:#0000FF"
       d="M  94.1 564.7 L141.2 564.7 L117.6 588.2Z
M141.2 564.7 L 94.1 564.7 L117.6 541.2Z
M 94.1 423.5 L141.2 423.5 L117.6 447.1Z
M141.2 423.5 L 94.1 423.5 L117.6 400.0Z
M 94.1 329.4 L141.2 329.4 L117.6 352.9Z
M141.2 282.4 L141.2 329.4 L117.6 305.9Z
M141.2 329.4 L 94.1 329.4 L117.6 305.9Z
M 94.1 188.2 L141.2 188.2 L117.6 211.8Z
M141.2 329.4 L141.2 282.4 L164.7 305.9Z
M188.2 141.2 L188.2 188.2 L164.7 164.7Z
M188.2 658.8 L235.3 658.8 L211.8 682.4Z
M235.3 658.8 L188.2 658.8 L211.8 635.3Z
M235.3 517.6 L235.3 564.7 L211.8 541.2Z
M188.2 423.5 L235.3 423.5 L211.8 447.1Z
M235.3 423.5 L188.2 423.5 L211.8 400.0Z
M188.2 188.2 L188.2 141.2 L211.8 164.7Z
M235.3 564.7 L235.3 517.6 L258.8 541.2Z
M282.4 282.4 L282.4 329.4 L258.8 305.9Z
M235.3 188.2 L282.4 188.2 L258.8 211.8Z
M282.4 141.2 L282.4 188.2 L258.8 164.7Z
M282.4 188.2 L235.3 188.2 L258.8 164.7Z
M235.3  94.1 L282.4  94.1 L258.8 117.6Z
M282.4 658.8 L329.4 658.8 L305.9 682.4Z
M329.4 658.8 L282.4 658.8 L305.9 635.3Z
M282.4 423.5 L329.4 423.5 L305.9 447.1Z
M329.4 423.5 L282.4 423.5 L305.9 400.0Z
M282.4 329.4 L282.4 282.4 L305.9 305.9Z
M282.4 188.2 L282.4 141.2 L305.9 164.7Z
M329.4 658.8 L376.5 658.8 L352.9 682.4Z
M376.5 611.8 L376.5 658.8 L352.9 635.3Z
M376.5 658.8 L329.4 658.8 L352.9 635.3Z
M329.4 564.7 L376.5 564.7 L352.9 588.2Z
M376.5 564.7 L329.4 564.7 L352.9 541.2Z
M376.5 658.8 L423.5 658.8 L400.0 682.4Z
M423.5 658.8 L376.5 658.8 L400.0 635.3Z
M376.5 658.8 L376.5 611.8 L400.0 635.3Z
M376.5 423.5 L423.5 423.5 L400.0 447.1Z
M423.5 423.5 L376.5 423.5 L400.0 400.0Z
M376.5 329.4 L423.5 329.4 L400.0 352.9Z
M423.5 329.4 L376.5 329.4 L400.0 305.9Z
M376.5 188.2 L423.5 188.2 L400.0 211.8Z
M423.5 188.2 L376.5 188.2 L400.0 164.7Z
M376.5  94.1 L423.5  94.1 L400.0 117.6Z
M423.5  94.1 L376.5  94.1 L400.0  70.6Z
M423.5 658.8 L470.6 658.8 L447.1 682.4Z
M470.6 658.8 L423.5 658.8 L447.1 635.3Z
M423.5 564.7 L470.6 564.7 L447.1 588.2Z
M470.6 564.7 L423.5 564.7 L447.1 541.2Z
M423.5 423.5 L470.6 423.5 L447.1 447.1Z
M470.6 376.5 L470.6 423.5 L447.1 400.0Z
M470.6 423.5 L423.5 423.5 L447.1 400.0Z
M423.5 188.2 L470.6 188.2 L447.1 211.8Z
M470.6 141.2 L470.6 188.2 L447.1 164.7Z
M470.6 188.2 L423.5 188.2 L447.1 164.7Z
M470.6 658.8 L517.6 658.8 L494.1 682.4Z
M517.6 611.8 L517.6 658.8 L494.1 635.3Z
M517.6 658.8 L470.6 658.8 L494.1 635.3Z
M470.6 423.5 L517.6 423.5 L494.1 447.1Z
M517.6 423.5 L470.6 423.5 L494.1 400.0Z
M470.6 423.5 L470.6 376.5 L494.1 400.0Z
M517.6 282.4 L517.6 329.4 L494.1 305.9Z
M470.6 188.2 L517.6 188.2 L494.1 211.8Z
M517.6 188.2 L470.6 188.2 L494.1 164.7Z
M470.6 188.2 L470.6 141.2 L494.1 164.7Z
M517.6  47.1 L517.6  94.1 L494.1  70.6Z
M517.6 658.8 L564.7 658.8 L541.2 682.4Z
M564.7 658.8 L517.6 658.8 L541.2 635.3Z
M517.6 658.8 L517.6 611.8 L541.2 635.3Z
M564.7 517.6 L564.7 564.7 L541.2 541.2Z
M517.6 423.5 L564.7 423.5 L541.2 447.1Z
M564.7 423.5 L517.6 423.5 L541.2 400.0Z
M517.6 329.4 L564.7 329.4 L541.2 352.9Z
M564.7 329.4 L517.6 329.4 L541.2 305.9Z
M517.6 329.4 L517.6 282.4 L541.2 305.9Z
M517.6 188.2 L564.7 188.2 L541.2 211.8Z
M564.7 188.2 L517.6 188.2 L541.2 164.7Z
M517.6  94.1 L564.7  94.1 L541.2 117.6Z
M564.7 658.8 L611.8 658.8 L588.2 682.4Z
M611.8 658.8 L564.7 658.8 L588.2 635.3Z
M564.7 564.7 L611.8 564.7 L588.2 588.2Z
M611.8 564.7 L564.7 564.7 L588.2 541.2Z
M564.7 564.7 L564.7 517.6 L588.2 541.2Z
M564.7 423.5 L611.8 423.5 L588.2 447.1Z
M611.8 376.5 L611.8 423.5 L588.2 400.0Z
M611.8 423.5 L564.7 423.5 L588.2 400.0Z
M611.8 282.4 L611.8 329.4 L588.2 305.9Z
M564.7 188.2 L611.8 188.2 L588.2 211.8Z
M611.8 141.2 L611.8 188.2 L588.2 164.7Z
M611.8 188.2 L564.7 188.2 L588.2 164.7Z
M564.7  94.1 L611.8  94.1 L588.2 117.6Z
M658.8 611.8 L658.8 658.8 L635.3 635.3Z
M658.8 658.8 L611.8 658.8 L635.3 635.3Z
M611.8 564.7 L658.8 564.7 L635.3 588.2Z
M658.8 564.7 L611.8 564.7 L635.3 541.2Z
M611.8 423.5 L658.8 423.5 L635.3 447.1Z
M658.8 423.5 L611.8 423.5 L635.3 400.0Z
M611.8 423.5 L611.8 376.5 L635.3 400.0Z
M611.8 329.4 L611.8 282.4 L635.3 305.9Z
M611.8 188.2 L611.8 141.2 L635.3 164.7Z
M658.8 423.5 L705.9 423.5 L682.4 447.1Z
M705.9 423.5 L658.8 423.5 L682.4 400.0Z
M658.8 188.2 L705.9 188.2 L682.4 211.8Z
M705.9 423.5 L752.9 423.5 L729.4 447.1Z
M752.9 376.5 L752.9 423.5 L729.4 400.0Z
M752.9 423.5 L705.9 423.5 L729.4 400.0Z
M705.9 329.4 L752.9 329.4 L729.4 352.9Z"
       id="path10645" />
  <path  style="stroke:#000000;stroke-width:1;fill:#FFFF00"
       d="M  47.1 470.6 L 47.1 423.5 L 70.6 447.1Z
M 94.1 329.4 L 94.1 376.5 L 70.6 352.9Z
M 47.1 376.5 L 47.1 329.4 L 70.6 352.9Z
M 47.1 329.4 L 94.1 329.4 L 70.6 352.9Z
M141.2 564.7 L141.2 611.8 L117.6 588.2Z
M 94.1 611.8 L 94.1 564.7 L117.6 588.2Z
M141.2 470.6 L141.2 517.6 L117.6 494.1Z
M141.2 329.4 L141.2 376.5 L117.6 352.9Z
M 94.1 376.5 L 94.1 329.4 L117.6 352.9Z
M141.2 235.3 L141.2 282.4 L117.6 258.8Z
M141.2 188.2 L141.2 235.3 L117.6 211.8Z
M 94.1 235.3 L 94.1 188.2 L117.6 211.8Z
M141.2 611.8 L141.2 564.7 L164.7 588.2Z
M141.2 517.6 L141.2 470.6 L164.7 494.1Z
M188.2 423.5 L188.2 470.6 L164.7 447.1Z
M141.2 376.5 L141.2 329.4 L164.7 352.9Z
M188.2 235.3 L188.2 282.4 L164.7 258.8Z
M141.2 282.4 L141.2 235.3 L164.7 258.8Z
M141.2 235.3 L188.2 235.3 L164.7 258.8Z
M188.2 235.3 L141.2 235.3 L164.7 211.8Z
M141.2 235.3 L141.2 188.2 L164.7 211.8Z
M235.3 564.7 L235.3 611.8 L211.8 588.2Z
M235.3 470.6 L235.3 517.6 L211.8 494.1Z
M235.3 423.5 L235.3 470.6 L211.8 447.1Z
M188.2 470.6 L188.2 423.5 L211.8 447.1Z
M235.3 329.4 L235.3 376.5 L211.8 352.9Z
M188.2 282.4 L188.2 235.3 L211.8 258.8Z
M235.3 188.2 L235.3 235.3 L211.8 211.8Z
M235.3  94.1 L235.3 141.2 L211.8 117.6Z
M188.2 141.2 L188.2  94.1 L211.8 117.6Z
M188.2  94.1 L235.3  94.1 L211.8 117.6Z
M282.4 658.8 L282.4 705.9 L258.8 682.4Z
M235.3 611.8 L235.3 564.7 L258.8 588.2Z
M282.4 470.6 L282.4 517.6 L258.8 494.1Z
M235.3 517.6 L235.3 470.6 L258.8 494.1Z
M235.3 470.6 L282.4 470.6 L258.8 494.1Z
M282.4 470.6 L235.3 470.6 L258.8 447.1Z
M235.3 470.6 L235.3 423.5 L258.8 447.1Z
M235.3 376.5 L235.3 329.4 L258.8 352.9Z
M282.4 235.3 L282.4 282.4 L258.8 258.8Z
M282.4 188.2 L282.4 235.3 L258.8 211.8Z
M235.3 235.3 L235.3 188.2 L258.8 211.8Z
M282.4  94.1 L282.4 141.2 L258.8 117.6Z
M235.3 141.2 L235.3  94.1 L258.8 117.6Z
M329.4 658.8 L329.4 705.9 L305.9 682.4Z
M282.4 705.9 L282.4 658.8 L305.9 682.4Z
M329.4 564.7 L329.4 611.8 L305.9 588.2Z
M282.4 517.6 L282.4 470.6 L305.9 494.1Z
M329.4 329.4 L329.4 376.5 L305.9 352.9Z
M329.4 235.3 L329.4 282.4 L305.9 258.8Z
M282.4 282.4 L282.4 235.3 L305.9 258.8Z
M282.4 235.3 L329.4 235.3 L305.9 258.8Z
M329.4 235.3 L282.4 235.3 L305.9 211.8Z
M282.4 235.3 L282.4 188.2 L305.9 211.8Z
M329.4  94.1 L329.4 141.2 L305.9 117.6Z
M282.4 141.2 L282.4  94.1 L305.9 117.6Z
M282.4  94.1 L329.4  94.1 L305.9 117.6Z
M376.5 705.9 L376.5 752.9 L352.9 729.4Z
M376.5 658.8 L376.5 705.9 L352.9 682.4Z
M329.4 705.9 L329.4 658.8 L352.9 682.4Z
M376.5 564.7 L376.5 611.8 L352.9 588.2Z
M329.4 611.8 L329.4 564.7 L352.9 588.2Z
M376.5 470.6 L376.5 517.6 L352.9 494.1Z
M376.5 423.5 L376.5 470.6 L352.9 447.1Z
M329.4 376.5 L329.4 329.4 L352.9 352.9Z
M329.4 282.4 L329.4 235.3 L352.9 258.8Z
M376.5 188.2 L376.5 235.3 L352.9 211.8Z
M329.4 141.2 L329.4  94.1 L352.9 117.6Z
M376.5 752.9 L376.5 705.9 L400.0 729.4Z
M423.5 658.8 L423.5 705.9 L400.0 682.4Z
M376.5 705.9 L376.5 658.8 L400.0 682.4Z
M376.5 611.8 L376.5 564.7 L400.0 588.2Z
M376.5 517.6 L376.5 470.6 L400.0 494.1Z
M423.5 423.5 L423.5 470.6 L400.0 447.1Z
M376.5 470.6 L376.5 423.5 L400.0 447.1Z
M423.5 235.3 L423.5 282.4 L400.0 258.8Z
M423.5 188.2 L423.5 235.3 L400.0 211.8Z
M376.5 235.3 L376.5 188.2 L400.0 211.8Z
M470.6 705.9 L470.6 752.9 L447.1 729.4Z
M470.6 658.8 L470.6 705.9 L447.1 682.4Z
M423.5 705.9 L423.5 658.8 L447.1 682.4Z
M470.6 470.6 L470.6 517.6 L447.1 494.1Z
M470.6 423.5 L470.6 470.6 L447.1 447.1Z
M423.5 470.6 L423.5 423.5 L447.1 447.1Z
M470.6 329.4 L470.6 376.5 L447.1 352.9Z
M423.5 282.4 L423.5 235.3 L447.1 258.8Z
M470.6 188.2 L470.6 235.3 L447.1 211.8Z
M423.5 235.3 L423.5 188.2 L447.1 211.8Z
M470.6  94.1 L470.6 141.2 L447.1 117.6Z
M517.6 658.8 L517.6 705.9 L494.1 682.4Z
M470.6 705.9 L470.6 658.8 L494.1 682.4Z
M517.6 564.7 L517.6 611.8 L494.1 588.2Z
M470.6 517.6 L470.6 470.6 L494.1 494.1Z
M517.6 423.5 L517.6 470.6 L494.1 447.1Z
M470.6 470.6 L470.6 423.5 L494.1 447.1Z
M470.6 376.5 L470.6 329.4 L494.1 352.9Z
M517.6 235.3 L517.6 282.4 L494.1 258.8Z
M517.6 188.2 L517.6 235.3 L494.1 211.8Z
M470.6 235.3 L470.6 188.2 L494.1 211.8Z
M470.6 141.2 L470.6  94.1 L494.1 117.6Z
M564.7 658.8 L564.7 705.9 L541.2 682.4Z
M517.6 705.9 L517.6 658.8 L541.2 682.4Z
M517.6 611.8 L517.6 564.7 L541.2 588.2Z
M564.7 470.6 L564.7 517.6 L541.2 494.1Z
M564.7 423.5 L564.7 470.6 L541.2 447.1Z
M517.6 470.6 L517.6 423.5 L541.2 447.1Z
M517.6 282.4 L517.6 235.3 L541.2 258.8Z
M564.7 188.2 L564.7 235.3 L541.2 211.8Z
M517.6 235.3 L517.6 188.2 L541.2 211.8Z
M611.8 658.8 L611.8 705.9 L588.2 682.4Z
M564.7 705.9 L564.7 658.8 L588.2 682.4Z
M564.7 517.6 L564.7 470.6 L588.2 494.1Z
M611.8 423.5 L611.8 470.6 L588.2 447.1Z
M564.7 470.6 L564.7 423.5 L588.2 447.1Z
M611.8 329.4 L611.8 376.5 L588.2 352.9Z
M611.8 235.3 L611.8 282.4 L588.2 258.8Z
M611.8 188.2 L611.8 235.3 L588.2 211.8Z
M564.7 235.3 L564.7 188.2 L588.2 211.8Z
M658.8 470.6 L658.8 517.6 L635.3 494.1Z
M658.8 423.5 L658.8 470.6 L635.3 447.1Z
M611.8 470.6 L611.8 423.5 L635.3 447.1Z
M611.8 376.5 L611.8 329.4 L635.3 352.9Z
M658.8 235.3 L658.8 282.4 L635.3 258.8Z
M611.8 282.4 L611.8 235.3 L635.3 258.8Z
M611.8 235.3 L658.8 235.3 L635.3 258.8Z
M658.8 235.3 L611.8 235.3 L635.3 211.8Z
M611.8 235.3 L611.8 188.2 L635.3 211.8Z
M705.9 564.7 L705.9 611.8 L682.4 588.2Z
M658.8 517.6 L658.8 470.6 L682.4 494.1Z
M705.9 423.5 L705.9 470.6 L682.4 447.1Z
M658.8 470.6 L658.8 423.5 L682.4 447.1Z
M705.9 329.4 L705.9 376.5 L682.4 352.9Z
M658.8 282.4 L658.8 235.3 L682.4 258.8Z
M752.9 423.5 L752.9 470.6 L729.4 447.1Z
M705.9 470.6 L705.9 423.5 L729.4 447.1Z
M752.9 329.4 L752.9 376.5 L729.4 352.9Z
M705.9 376.5 L705.9 329.4 L729.4 352.9Z"
       id="path10921" />
  <path style="stroke:#000000;stroke-width:1;fill:#808080"
       d="M  94.1 423.5 L 94.1 470.6 L 70.6 447.1Z
M 94.1 517.6 L 94.1 470.6 L117.6 494.1Z
M141.2 423.5 L141.2 470.6 L117.6 447.1Z
M 94.1 470.6 L 94.1 423.5 L117.6 447.1Z
M 94.1 282.4 L 94.1 235.3 L117.6 258.8Z
M188.2 564.7 L188.2 611.8 L164.7 588.2Z
M188.2 470.6 L188.2 517.6 L164.7 494.1Z
M141.2 470.6 L141.2 423.5 L164.7 447.1Z
M188.2 329.4 L188.2 376.5 L164.7 352.9Z
M188.2 188.2 L188.2 235.3 L164.7 211.8Z
M235.3 658.8 L235.3 705.9 L211.8 682.4Z
M188.2 705.9 L188.2 658.8 L211.8 682.4Z
M188.2 611.8 L188.2 564.7 L211.8 588.2Z
M188.2 517.6 L188.2 470.6 L211.8 494.1Z
M188.2 376.5 L188.2 329.4 L211.8 352.9Z
M235.3 235.3 L235.3 282.4 L211.8 258.8Z
M188.2 235.3 L188.2 188.2 L211.8 211.8Z
M235.3 705.9 L235.3 658.8 L258.8 682.4Z
M282.4 564.7 L282.4 611.8 L258.8 588.2Z
M282.4 423.5 L282.4 470.6 L258.8 447.1Z
M282.4 329.4 L282.4 376.5 L258.8 352.9Z
M235.3 282.4 L235.3 235.3 L258.8 258.8Z
M282.4 611.8 L282.4 564.7 L305.9 588.2Z
M329.4 470.6 L329.4 517.6 L305.9 494.1Z
M329.4 423.5 L329.4 470.6 L305.9 447.1Z
M282.4 470.6 L282.4 423.5 L305.9 447.1Z
M282.4 376.5 L282.4 329.4 L305.9 352.9Z
M329.4 188.2 L329.4 235.3 L305.9 211.8Z
M329.4 752.9 L329.4 705.9 L352.9 729.4Z
M329.4 517.6 L329.4 470.6 L352.9 494.1Z
M329.4 470.6 L329.4 423.5 L352.9 447.1Z
M376.5 329.4 L376.5 376.5 L352.9 352.9Z
M376.5 235.3 L376.5 282.4 L352.9 258.8Z
M329.4 235.3 L329.4 188.2 L352.9 211.8Z
M376.5  94.1 L376.5 141.2 L352.9 117.6Z
M423.5 705.9 L423.5 752.9 L400.0 729.4Z
M423.5 564.7 L423.5 611.8 L400.0 588.2Z
M423.5 470.6 L423.5 517.6 L400.0 494.1Z
M423.5 329.4 L423.5 376.5 L400.0 352.9Z
M376.5 376.5 L376.5 329.4 L400.0 352.9Z
M376.5 282.4 L376.5 235.3 L400.0 258.8Z
M423.5  94.1 L423.5 141.2 L400.0 117.6Z
M376.5 141.2 L376.5  94.1 L400.0 117.6Z
M423.5 752.9 L423.5 705.9 L447.1 729.4Z
M470.6 564.7 L470.6 611.8 L447.1 588.2Z
M423.5 611.8 L423.5 564.7 L447.1 588.2Z
M423.5 517.6 L423.5 470.6 L447.1 494.1Z
M423.5 376.5 L423.5 329.4 L447.1 352.9Z
M470.6 235.3 L470.6 282.4 L447.1 258.8Z
M423.5 141.2 L423.5  94.1 L447.1 117.6Z
M470.6 611.8 L470.6 564.7 L494.1 588.2Z
M517.6 470.6 L517.6 517.6 L494.1 494.1Z
M517.6 329.4 L517.6 376.5 L494.1 352.9Z
M470.6 282.4 L470.6 235.3 L494.1 258.8Z
M517.6  94.1 L517.6 141.2 L494.1 117.6Z
M564.7 564.7 L564.7 611.8 L541.2 588.2Z
M517.6 517.6 L517.6 470.6 L541.2 494.1Z
M564.7 329.4 L564.7 376.5 L541.2 352.9Z
M517.6 376.5 L517.6 329.4 L541.2 352.9Z
M564.7 235.3 L564.7 282.4 L541.2 258.8Z
M564.7  94.1 L564.7 141.2 L541.2 117.6Z
M517.6 141.2 L517.6  94.1 L541.2 117.6Z
M611.8 564.7 L611.8 611.8 L588.2 588.2Z
M564.7 611.8 L564.7 564.7 L588.2 588.2Z
M611.8 470.6 L611.8 517.6 L588.2 494.1Z
M564.7 376.5 L564.7 329.4 L588.2 352.9Z
M564.7 282.4 L564.7 235.3 L588.2 258.8Z
M611.8  94.1 L611.8 141.2 L588.2 117.6Z
M564.7 141.2 L564.7  94.1 L588.2 117.6Z
M658.8 564.7 L658.8 611.8 L635.3 588.2Z
M611.8 611.8 L611.8 564.7 L635.3 588.2Z
M611.8 517.6 L611.8 470.6 L635.3 494.1Z
M658.8 329.4 L658.8 376.5 L635.3 352.9Z
M658.8 188.2 L658.8 235.3 L635.3 211.8Z
M658.8 611.8 L658.8 564.7 L682.4 588.2Z
M705.9 470.6 L705.9 517.6 L682.4 494.1Z
M658.8 376.5 L658.8 329.4 L682.4 352.9Z
M705.9 235.3 L705.9 282.4 L682.4 258.8Z
M705.9 188.2 L705.9 235.3 L682.4 211.8Z
M658.8 235.3 L658.8 188.2 L682.4 211.8Z"
       id="path11083" />
  <circle
     sodipodi:type="arc"
     style="fill:url(#radialGradient11873);fill-opacity:1;stroke:none"
     id="path11093"
     cx="400"
     cy="400"
     r="388"/>
</svg>